<svg xmlns="http://www.w3.org/2000/svg"  >

<symbol id="icon-inbox" viewBox="0 0 16 16">
  <path d="M4.98 4a.5.5 0 0 0-.39.188L1.54 8H6a.5.5 0 0 1 .5.5 1.5 1.5 0 1 0 3 0A.5.5 0 0 1 10 8h4.46l-3.05-3.812A.5.5 0 0 0 11.02 4zm-1.17-.437A1.5 1.5 0 0 1 4.98 3h6.04a1.5 1.5 0 0 1 1.17.563l3.7 4.625a.5.5 0 0 1 .106.374l-.39 3.124A1.5 1.5 0 0 1 14.117 13H1.883a1.5 1.5 0 0 1-1.489-1.314l-.39-3.124a.5.5 0 0 1 .106-.374z"/>
</symbol>

<symbol id="icon-layout" viewBox="0 0 16 16">
  <path d="M0 3a2 2 0 0 1 2-2h12a2 2 0 0 1 2 2v10a2 2 0 0 1-2 2H2a2 2 0 0 1-2-2zm5-1v12h9a1 1 0 0 0 1-1V3a1 1 0 0 0-1-1zM4 2H2a1 1 0 0 0-1 1v10a1 1 0 0 0 1 1h2z"/>
</symbol>

<symbol id="icon-plus" viewBox="0 0 24 24">
<path d="M17,13H13V17H11V13H7V11H11V7H13V11H17M12,2A10,10 0 0,0 2,12A10,10 0 0,0 12,22A10,10 0 0,0 22,12A10,10 0 0,0 12,2Z" />
</symbol>

<symbol id="icon-calendar" viewBox="0 0 24 24">
<path d="M7 11H9V13H7V11M21 5V19C21 20.11 20.11 21 19 21H5C3.89 21 3 20.1 3 19V5C3 3.9 3.9 3 5 3H6V1H8V3H16V1H18V3H19C20.11 3 21 3.9 21 5M5 7H19V5H5V7M19 19V9H5V19H19M15 13V11H17V13H15M11 13V11H13V13H11M7 15H9V17H7V15M15 17V15H17V17H15M11 17V15H13V17H11Z" />
</symbol>

<symbol id="icon-clock" viewBox="0 0 24 24">
<path d="M11 7V13L16.2 16.1L17 14.9L12.5 12.2V7H11M20 12V18H22V12H20M20 20V22H22V20H20M18 20C16.3 21.3 14.3 22 12 22C6.5 22 2 17.5 2 12S6.5 2 12 2C16.8 2 20.9 5.4 21.8 10H19.7C18.8 6.6 15.7 4 12 4C7.6 4 4 7.6 4 12S7.6 20 12 20C14.4 20 16.5 18.9 18 17.3V20Z" />
</symbol>


<symbol id="icon-folder" viewBox="0 0 16 16">
<path d="M.54 3.87.5 3a2 2 0 0 1 2-2h3.672a2 2 0 0 1 1.414.586l.828.828A2 2 0 0 0 9.828 3h3.982a2 2 0 0 1 1.992 2.181l-.637 7A2 2 0 0 1 13.174 14H2.826a2 2 0 0 1-1.991-1.819l-.637-7a2 2 0 0 1 .342-1.31zM2.19 4a1 1 0 0 0-.996 1.09l.637 7a1 1 0 0 0 .995.91h10.348a1 1 0 0 0 .995-.91l.637-7A1 1 0 0 0 13.81 4zm4.69-1.707A1 1 0 0 0 6.172 2H2.5a1 1 0 0 0-1 .981l.006.139q.323-.119.684-.12h5.396z"/>
</symbol>

<symbol id="icon-folderPlus" viewBox="0 0 16 16">
  <path d="m.5 3 .04.87a2 2 0 0 0-.342 1.311l.637 7A2 2 0 0 0 2.826 14H9v-1H2.826a1 1 0 0 1-.995-.91l-.637-7A1 1 0 0 1 2.19 4h11.62a1 1 0 0 1 .996 1.09L14.54 8h1.005l.256-2.819A2 2 0 0 0 13.81 3H9.828a2 2 0 0 1-1.414-.586l-.828-.828A2 2 0 0 0 6.172 1H2.5a2 2 0 0 0-2 2m5.672-1a1 1 0 0 1 .707.293L7.586 3H2.19q-.362.002-.683.12L1.5 2.98a1 1 0 0 1 1-.98z"/>
  <path d="M13.5 9a.5.5 0 0 1 .5.5V11h1.5a.5.5 0 1 1 0 1H14v1.5a.5.5 0 1 1-1 0V12h-1.5a.5.5 0 0 1 0-1H13V9.5a.5.5 0 0 1 .5-.5"/>
</symbol>

<symbol id="icon-check" viewBox="0 0 23 23">
<path d="M21,7L9,19L3.5,13.5L4.91,12.09L9,16.17L19.59,5.59L21,7Z" />
</symbol>

<symbol id="icon-check-full" viewBox="-0.5 -0.5 17 17">
  <path d="M8 15A7 7 0 1 1 8 1a7 7 0 0 1 0 14m0 1A8 8 0 1 0 8 0a8 8 0 0 0 0 16"/>
  <path d="m10.97 4.97-.02.022-3.473 4.425-2.093-2.094a.75.75 0 0 0-1.06 1.06L6.97 11.03a.75.75 0 0 0 1.079-.02l3.992-4.99a.75.75 0 0 0-1.071-1.05"/>
</symbol>


<symbol id="icon-edit" viewBox="0 0 24 24">
<path d="M14.06,9L15,9.94L5.92,19H5V18.08L14.06,9M17.66,3C17.41,3 17.15,3.1 16.96,3.29L15.13,5.12L18.88,8.87L20.71,7.04C21.1,6.65 21.1,6 20.71,5.63L18.37,3.29C18.17,3.09 17.92,3 17.66,3M14.06,6.19L3,17.25V21H6.75L17.81,9.94L14.06,6.19Z" />
</symbol>


<symbol id="icon-delete" viewBox="0 0 16 15">
  <path d="M2.5 1a1 1 0 0 0-1 1v1a1 1 0 0 0 1 1H3v9a2 2 0 0 0 2 2h6a2 2 0 0 0 2-2V4h.5a1 1 0 0 0 1-1V2a1 1 0 0 0-1-1H10a1 1 0 0 0-1-1H7a1 1 0 0 0-1 1zm3 4a.5.5 0 0 1 .5.5v7a.5.5 0 0 1-1 0v-7a.5.5 0 0 1 .5-.5M8 5a.5.5 0 0 1 .5.5v7a.5.5 0 0 1-1 0v-7A.5.5 0 0 1 8 5m3 .5v7a.5.5 0 0 1-1 0v-7a.5.5 0 0 1 1 0"/>
</symbol>

<symbol id="icon-plus+" viewBox="0 0 16 15">
  <path d="M8 4a.5.5 0 0 1 .5.5v3h3a.5.5 0 0 1 0 1h-3v3a.5.5 0 0 1-1 0v-3h-3a.5.5 0 0 1 0-1h3v-3A.5.5 0 0 1 8 4"/>
</symbol>


</svg>